<?xml version="1.0" encoding="UTF-8" standalone="no"?>
<!DOCTYPE svg PUBLIC "-//W3C//DTD SVG 1.1//EN" "http://www.w3.org/Graphics/SVG/1.1/DTD/svg11.dtd">
<svg width="100%" height="100%" viewBox="0 0 600 400" version="1.1" xmlns="http://www.w3.org/2000/svg" xmlns:xlink="http://www.w3.org/1999/xlink" xml:space="preserve" xmlns:serif="http://www.serif.com/" style="fill-rule:evenodd;clip-rule:evenodd;">
    <rect x="0" y="0" width="600" height="400" style="fill:white;"/>
    <rect x="53.939" y="11.811" width="534.252" height="344.594" style="fill:white;"/>
    <path d="M68.049,356.405L68.049,11.811" style="fill:none;fill-rule:nonzero;stroke:black;stroke-opacity:0.1;stroke-width:0.5px;"/>
    <path d="M169.053,356.405L169.053,11.811" style="fill:none;fill-rule:nonzero;stroke:black;stroke-width:1px;stroke-dasharray:10,3,0,0;"/>
    <g transform="matrix(1,0,0,1,-88.6334,-96.0849)">
        <path d="M406.628,248.807L522.125,248.807L522.125,203.447L406.628,203.447L406.628,248.807" style="fill:none;fill-rule:nonzero;stroke:black;stroke-width:1px;"/>
    </g>
    <g transform="matrix(1,0,0,1,-88.6334,-96.0849)">
        <path d="M412.628,218.567L448.628,218.567" style="fill:none;fill-rule:nonzero;stroke:rgb(65,0,235);stroke-width:1.5px;"/>
    </g>
    <g transform="matrix(1,0,0,1,365.994,126.857)">
        <text x="0px" y="0px" style="font-family:'ArialMT', 'Arial', sans-serif;font-size:12px;">Metropolis</text>
    </g>
    <g transform="matrix(1,0,0,1,-88.6334,-96.0849)">
        <path d="M412.628,233.687L448.628,233.687" style="fill:none;fill-rule:nonzero;stroke:rgb(235,0,65);stroke-width:1.5px;"/>
    </g>
    <g transform="matrix(1,0,0,1,365.994,141.977)">
        <text x="0px" y="0px" style="font-family:'ArialMT', 'Arial', sans-serif;font-size:12px;">Glauber</text>
    </g>
    <path d="M270.058,356.405L270.058,11.811" style="fill:none;fill-rule:nonzero;stroke:black;stroke-opacity:0.1;stroke-width:0.5px;"/>
    <path d="M371.06,356.405L371.06,11.811" style="fill:none;fill-rule:nonzero;stroke:black;stroke-opacity:0.1;stroke-width:0.5px;"/>
    <path d="M472.065,356.405L472.065,11.811" style="fill:none;fill-rule:nonzero;stroke:black;stroke-opacity:0.1;stroke-width:0.5px;"/>
    <path d="M573.068,356.405L573.068,11.811" style="fill:none;fill-rule:nonzero;stroke:black;stroke-opacity:0.1;stroke-width:0.5px;"/>
    <path d="M53.939,346.652L588.19,346.652" style="fill:none;fill-rule:nonzero;stroke:black;stroke-opacity:0.1;stroke-width:0.5px;"/>
    <path d="M53.939,310.53L588.19,310.53" style="fill:none;fill-rule:nonzero;stroke:black;stroke-opacity:0.1;stroke-width:0.5px;"/>
    <path d="M53.939,274.41L588.19,274.41" style="fill:none;fill-rule:nonzero;stroke:black;stroke-opacity:0.1;stroke-width:0.5px;"/>
    <path d="M53.939,238.289L588.19,238.289" style="fill:none;fill-rule:nonzero;stroke:black;stroke-opacity:0.1;stroke-width:0.5px;"/>
    <path d="M53.939,202.168L588.19,202.168" style="fill:none;fill-rule:nonzero;stroke:black;stroke-opacity:0.1;stroke-width:0.5px;"/>
    <path d="M53.939,166.048L588.19,166.048" style="fill:none;fill-rule:nonzero;stroke:black;stroke-opacity:0.1;stroke-width:0.5px;"/>
    <path d="M53.939,129.927L588.19,129.927" style="fill:none;fill-rule:nonzero;stroke:black;stroke-opacity:0.1;stroke-width:0.5px;"/>
    <path d="M53.939,93.806L588.19,93.806" style="fill:none;fill-rule:nonzero;stroke:black;stroke-opacity:0.1;stroke-width:0.5px;"/>
    <path d="M53.939,57.685L588.19,57.685" style="fill:none;fill-rule:nonzero;stroke:black;stroke-opacity:0.1;stroke-width:0.5px;"/>
    <path d="M53.939,21.564L588.19,21.564" style="fill:none;fill-rule:nonzero;stroke:black;stroke-opacity:0.1;stroke-width:0.5px;"/>
    <path d="M53.939,356.405L588.19,356.405" style="fill:none;fill-rule:nonzero;stroke:black;stroke-width:1px;"/>
    <path d="M53.939,356.405L53.939,11.811" style="fill:none;fill-rule:nonzero;stroke:black;stroke-width:1px;"/>
    <path d="M68.049,356.405L68.049,352.27" style="fill:none;fill-rule:nonzero;stroke:black;stroke-width:1px;"/>
    <path d="M169.053,356.405L169.053,352.27" style="fill:none;fill-rule:nonzero;stroke:black;stroke-width:1px;"/>
    <path d="M270.058,356.405L270.058,352.27" style="fill:none;fill-rule:nonzero;stroke:black;stroke-width:1px;"/>
    <path d="M371.06,356.405L371.06,352.27" style="fill:none;fill-rule:nonzero;stroke:black;stroke-width:1px;"/>
    <path d="M472.065,356.405L472.065,352.27" style="fill:none;fill-rule:nonzero;stroke:black;stroke-width:1px;"/>
    <path d="M573.068,356.405L573.068,352.27" style="fill:none;fill-rule:nonzero;stroke:black;stroke-width:1px;"/>
    <path d="M53.939,346.652L60.35,346.652" style="fill:none;fill-rule:nonzero;stroke:black;stroke-width:1px;"/>
    <path d="M53.939,310.53L60.35,310.53" style="fill:none;fill-rule:nonzero;stroke:black;stroke-width:1px;"/>
    <path d="M53.939,274.41L60.35,274.41" style="fill:none;fill-rule:nonzero;stroke:black;stroke-width:1px;"/>
    <path d="M53.939,238.289L60.35,238.289" style="fill:none;fill-rule:nonzero;stroke:black;stroke-width:1px;"/>
    <path d="M53.939,202.168L60.35,202.168" style="fill:none;fill-rule:nonzero;stroke:black;stroke-width:1px;"/>
    <path d="M53.939,166.048L60.35,166.048" style="fill:none;fill-rule:nonzero;stroke:black;stroke-width:1px;"/>
    <path d="M53.939,129.927L60.35,129.927" style="fill:none;fill-rule:nonzero;stroke:black;stroke-width:1px;"/>
    <path d="M53.939,93.806L60.35,93.806" style="fill:none;fill-rule:nonzero;stroke:black;stroke-width:1px;"/>
    <path d="M53.939,57.685L60.35,57.685" style="fill:none;fill-rule:nonzero;stroke:black;stroke-width:1px;"/>
    <path d="M53.939,21.564L60.35,21.564" style="fill:none;fill-rule:nonzero;stroke:black;stroke-width:1px;"/>
    <g transform="matrix(1,0,0,1,68.0487,369.905)">
        <text x="-3.337px" y="0px" style="font-family:'ArialMT', 'Arial', sans-serif;font-size:12px;">0</text>
    </g>
    <g transform="matrix(1,0,0,1,169.053,369.905)">
        <text x="-10.011px" y="0px" style="font-family:'ArialMT', 'Arial', sans-serif;font-size:12px;">100</text>
    </g>
    <g transform="matrix(1,0,0,1,270.058,369.905)">
        <text x="-10.011px" y="0px" style="font-family:'ArialMT', 'Arial', sans-serif;font-size:12px;">200</text>
    </g>
    <g transform="matrix(1,0,0,1,371.06,369.905)">
        <text x="-10.011px" y="0px" style="font-family:'ArialMT', 'Arial', sans-serif;font-size:12px;">300</text>
    </g>
    <g transform="matrix(1,0,0,1,472.065,369.905)">
        <text x="-10.011px" y="0px" style="font-family:'ArialMT', 'Arial', sans-serif;font-size:12px;">400</text>
    </g>
    <g transform="matrix(1,0,0,1,573.067,369.905)">
        <text x="-10.011px" y="0px" style="font-family:'ArialMT', 'Arial', sans-serif;font-size:12px;">500</text>
    </g>
    <g transform="matrix(1,0,0,1,47.9385,351.027)">
        <text x="-16.682px" y="0px" style="font-family:'ArialMT', 'Arial', sans-serif;font-size:12px;">0.0</text>
    </g>
    <g transform="matrix(1,0,0,1,47.9385,314.905)">
        <text x="-16.682px" y="0px" style="font-family:'ArialMT', 'Arial', sans-serif;font-size:12px;">0.1</text>
    </g>
    <g transform="matrix(1,0,0,1,47.9385,278.785)">
        <text x="-16.682px" y="0px" style="font-family:'ArialMT', 'Arial', sans-serif;font-size:12px;">0.2</text>
    </g>
    <g transform="matrix(1,0,0,1,47.9385,242.664)">
        <text x="-16.682px" y="0px" style="font-family:'ArialMT', 'Arial', sans-serif;font-size:12px;">0.3</text>
    </g>
    <g transform="matrix(1,0,0,1,47.9385,206.543)">
        <text x="-16.682px" y="0px" style="font-family:'ArialMT', 'Arial', sans-serif;font-size:12px;">0.4</text>
    </g>
    <g transform="matrix(1,0,0,1,47.9385,170.423)">
        <text x="-16.682px" y="0px" style="font-family:'ArialMT', 'Arial', sans-serif;font-size:12px;">0.5</text>
    </g>
    <g transform="matrix(1,0,0,1,47.9385,134.302)">
        <text x="-16.682px" y="0px" style="font-family:'ArialMT', 'Arial', sans-serif;font-size:12px;">0.6</text>
    </g>
    <g transform="matrix(1,0,0,1,47.9385,98.1805)">
        <text x="-16.682px" y="0px" style="font-family:'ArialMT', 'Arial', sans-serif;font-size:12px;">0.7</text>
    </g>
    <g transform="matrix(1,0,0,1,47.9385,62.0595)">
        <text x="-16.682px" y="0px" style="font-family:'ArialMT', 'Arial', sans-serif;font-size:12px;">0.8</text>
    </g>
    <g transform="matrix(1,0,0,1,47.9385,25.9387)">
        <text x="-16.682px" y="0px" style="font-family:'ArialMT', 'Arial', sans-serif;font-size:12px;">0.9</text>
    </g>
    <g transform="matrix(1,0,0,1,321.062,389.87)">
        <text x="-89.868px" y="0px" style="font-family:'ArialMT', 'Arial', sans-serif;font-size:16.5px;">Monte Carlo macrosteps</text>
    </g>
    <g transform="matrix(-3.82857e-16,-1,1,-3.82857e-16,22.3215,184.108)">
        <text x="-51.365px" y="0px" style="font-family:'ArialMT', 'Arial', sans-serif;font-size:16.5px;">magnetization</text>
    </g>
    <path d="M69.059,341.523L70.069,343.98L71.079,343.763L72.089,345.858L73.099,342.245L74.109,342.318L75.119,345.28L76.129,345.712L77.139,345.135L78.149,342.678L79.159,339.863L80.169,342.823L81.179,343.04L82.189,343.185L83.199,341.09L84.21,344.485L85.22,346.003L86.23,343.69L87.24,343.33L88.25,345.858L89.26,344.413L90.27,345.135L91.28,346.148L92.29,343.258L93.3,343.98L94.31,345.93L95.32,343.618L96.33,345.785L97.34,344.413L98.35,345.93L99.36,343.545L100.37,345.495L101.38,346.148L102.39,344.918L103.4,342.173L104.41,346.58L105.42,341.523L106.43,345.785L107.44,345.712L108.45,342.75L109.461,343.04L110.471,343.545L111.481,344.34L112.491,344.558L113.501,345.93L114.51,344.485L115.521,345.135L116.531,343.473L117.541,345.208L118.551,342.173L119.561,339.863L120.571,344.34L121.581,344.053L122.591,346.075L123.601,346.003L124.611,342.895L125.621,345.353L126.631,343.04L127.641,344.558L128.651,346.363L129.661,340.728L130.671,342.318L131.681,345.785L132.691,340.368L133.701,340.368L134.712,335.527L135.722,343.33L136.732,346.508L137.742,340.223L138.752,345.353L139.762,342.823L140.772,342.75L141.782,336.9L142.792,336.465L143.802,333.07L144.812,339.863L145.822,342.173L146.832,344.485L147.842,345.93L148.852,341.523L149.862,344.918L150.872,345.568L151.882,341.018L152.892,343.545L153.902,345.353L154.912,343.545L155.922,344.123L156.932,346.363L157.942,345.93L158.952,343.835L159.963,340.583L160.973,341.09L161.982,344.918L162.993,342.318L164.003,338.418L165.012,345.28L166.023,345.785L167.033,345.64L168.043,345.712L169.053,341.668L170.063,340.15L171.073,330.398L172.083,317.973L173.093,308.87L174.103,310.025L175.113,318.045L176.123,315.587L177.133,311.975L178.143,316.165L179.153,320.212L180.163,322.813L181.173,331.265L182.183,328.303L183.193,335.092L184.203,340.513L185.214,345.425L186.224,335.383L187.234,338.85L188.244,338.418L189.254,335.815L190.264,340.15L191.274,341.523L192.284,340.945L193.294,339.428L194.304,345.425L195.314,338.2L196.324,337.695L197.334,339.355L198.344,343.69L199.354,344.918L200.364,342.173L201.374,342.608L202.384,343.473L203.394,338.488L204.404,345.568L205.414,344.773L206.424,335.383L207.434,332.925L208.444,330.615L209.454,339.863L210.464,327.798L211.475,324.33L212.485,324.69L213.494,322.235L214.505,319.128L215.515,319.777L216.525,318.84L217.535,314.72L218.545,312.842L219.555,315.66L220.565,316.31L221.575,317.755L222.585,317.755L223.595,311.615L224.605,303.235L225.615,295.793L226.625,291.893L227.635,283.368L228.645,286.693L229.655,286.185L230.665,285.535L231.675,287.198L232.685,280.623L233.695,287.342L234.705,291.315L235.716,290.665L236.726,290.81L237.736,287.92L238.746,279.25L239.756,280.045L240.766,279.323L241.776,279.25L242.786,281.49L243.796,282.645L244.806,286.402L245.816,284.453L246.826,290.81L247.836,301.285L248.846,305.475L249.856,307.063L250.865,302.873L251.875,304.753L252.885,305.258L253.895,303.958L254.905,298.61L255.915,299.19L256.925,298.61L257.938,296.805L258.948,289.798L259.957,282.935L260.967,280.623L261.978,275.495L262.988,275.35L263.998,276.073L265.008,269.498L266.018,264.44L267.027,261.55L268.038,253.965L269.048,249.848L270.058,244.285L271.068,242.19L272.078,238.145L273.088,237.711L274.098,236.556L275.108,231.21L276.118,233.16L277.128,226.875L278.138,223.552L279.148,218.206L280.158,223.48L281.168,223.408L282.178,224.708L283.188,225.936L284.198,218.856L285.208,216.689L286.217,223.552L287.228,224.852L288.238,219.795L289.248,221.529L290.258,221.89L291.268,224.563L292.277,222.613L293.288,216.4L294.298,211.777L295.308,212.788L296.318,215.678L297.328,213.366L298.338,209.031L299.348,209.031L300.358,212.282L301.368,209.97L302.378,206.142L303.388,206.936L304.398,209.826L305.408,207.875L306.418,205.564L307.428,206.647L308.438,211.704L309.448,209.826L310.458,206.792L311.467,203.541L312.478,202.385L313.488,207.298L314.498,206.936L315.508,206.214L316.518,204.263L317.527,207.659L318.538,211.415L319.548,214.016L320.558,217.989L321.57,222.757L322.58,223.335L323.59,223.191L324.6,224.852L325.61,221.746L326.62,225.864L327.63,220.807L328.64,229.62L329.65,232.943L330.66,235.689L331.67,235.689L332.68,233.449L333.69,235.038L334.7,239.084L335.71,238.651L336.72,236.7L337.73,236.772L338.74,237.784L339.75,238.506L340.76,236.989L341.77,229.982L342.78,221.096L343.79,232.149L344.8,227.887L345.81,223.046L346.82,225.286L347.83,230.198L348.84,230.271L349.85,226.803L350.86,226.658L351.87,230.198L352.88,229.837L353.89,229.331L354.9,230.993L355.91,229.331L356.92,229.042L357.93,233.449L358.94,239.301L359.95,239.012L360.96,242.335L361.97,239.517L362.98,241.685L363.99,230.848L365,227.598L366.01,222.902L367.02,227.959L368.03,230.848L369.04,226.658L370.05,226.369L371.06,221.963L372.07,223.48L373.08,219.723L374.09,212.065L375.1,211.199L376.11,216.183L377.12,218.856L378.13,216.183L379.14,216.4L380.15,216.328L381.16,218.64L382.17,217.05L383.18,211.271L384.19,211.126L385.203,213.149L386.212,216.617L387.223,212.86L388.233,214.016L389.243,215.75L390.253,218.351L391.263,222.757L392.273,214.305L393.283,208.526L394.293,208.309L395.303,205.853L396.313,201.157L397.323,200.073L398.333,197.617L399.342,206.503L400.353,208.165L401.363,203.686L402.373,201.663L403.383,199.351L404.393,199.929L405.402,198.556L406.413,198.484L407.423,193.644L408.433,195.378L409.443,188.515L410.453,192.416L411.462,197.689L412.473,201.229L413.483,200.651L414.493,196.461L415.503,193.066L416.513,192.199L417.522,192.921L418.533,186.492L419.543,186.058L420.553,186.131L421.563,182.88L422.573,185.481L423.583,178.256L424.592,182.157L425.603,181.579L426.613,184.83L427.623,186.636L428.633,184.83L429.643,184.758L430.652,187.503L431.663,187.576L432.673,187.72L433.683,188.081L434.693,192.344L435.703,200.218L436.712,193.571L437.723,196.317L438.733,201.59L439.743,200.29L440.753,202.313L441.763,205.492L442.772,200.507L443.783,197.473L444.793,196.823L445.803,191.693L446.813,192.633L447.823,193.499L448.835,189.526L449.845,190.249L450.855,190.754L451.865,190.465L452.875,190.899L453.885,188.587L454.895,188.804L455.905,192.127L456.915,191.332L457.925,188.009L458.935,184.18L459.945,184.903L460.955,183.313L461.965,190.537L462.975,188.587L463.985,178.618L464.995,171.032L466.005,165.614L467.015,166.914L468.025,166.192L469.035,167.059L470.045,163.591L471.055,165.903L472.065,164.169L473.075,161.135L474.085,164.169L475.095,160.124L476.105,158.101L477.115,157.74L478.125,155.717L479.135,155.139L480.145,149.36L481.155,144.086L482.165,142.93L483.175,148.276L484.185,147.626L485.195,145.386L486.205,145.675L487.215,138.957L488.225,137.945L489.235,137.512L490.245,139.246L491.255,140.546L492.265,142.786L493.275,142.93L494.285,140.69L495.295,134.839L496.305,134.839L497.315,139.824L498.325,143.941L499.335,145.603L500.345,145.097L501.355,144.519L502.365,132.888L503.375,131.588L504.385,132.311L505.395,139.462L506.405,130.649L507.415,127.543L508.425,127.326L509.435,127.543L510.445,123.786L511.458,127.615L512.467,125.52L513.477,127.904L514.487,125.231L515.497,124.942L516.508,126.892L517.518,125.737L518.528,124.797L519.538,123.353L520.548,125.809L521.558,120.246L522.568,119.74L523.578,116.778L524.588,109.988L525.598,108.904L526.608,109.554L527.617,110.06L528.628,110.132L529.638,110.566L530.648,116.49L531.658,113.6L532.668,109.482L533.678,109.699L534.688,110.349L535.698,103.992L536.708,114.033L537.718,112.227L538.728,111.505L539.738,108.399L540.747,104.786L541.758,108.182L542.768,101.536L543.778,102.113L544.788,103.631L545.798,104.714L546.808,102.98L547.818,102.763L548.828,106.231L549.838,99.874L550.848,95.539L551.858,99.513L552.867,96.84L553.878,100.379L554.888,96.117L555.898,90.049L556.908,88.46L557.918,87.159L558.928,84.631L559.938,84.775L560.948,80.802L561.958,83.331L562.968,87.521L563.978,84.125L564.988,87.81L565.997,93.155L567.008,87.593L568.018,89.399L569.028,89.832L570.038,92.722L571.048,93.444L572.058,94.167L573.068,98.14" style="fill:none;fill-rule:nonzero;stroke:rgb(65,0,235);stroke-width:1.5px;"/>
    <path d="M69.059,339.863L70.069,341.378L71.079,345.495L72.089,346.217L73.099,345.64L74.109,346.075L75.119,342.823L76.129,345.28L77.139,342.39L78.149,344.703L79.159,344.99L80.169,343.33L81.179,336.393L82.189,333.505L83.199,339.21L84.21,346.508L85.22,341.958L86.23,345.858L87.24,346.363L88.25,336.465L89.26,341.163L90.27,338.055L91.28,335.6L92.29,337.623L93.3,344.413L94.31,342.462L95.32,345.135L96.33,342.245L97.34,344.053L98.35,343.185L99.36,341.74L100.37,343.98L101.38,343.4L102.39,343.618L103.4,342.1L104.41,344.053L105.42,341.09L106.43,344.845L107.44,344.123L108.45,342.75L109.461,345.93L110.471,341.45L111.481,344.123L112.491,342.462L113.501,336.755L114.51,345.495L115.521,340.655L116.531,338.273L117.541,336.033L118.551,332.42L119.561,337.115L120.571,339.068L121.581,345.712L122.591,340.15L123.601,341.668L124.611,342.027L125.621,340.368L126.631,342.245L127.641,342.245L128.651,346.435L129.661,343.33L130.671,342.462L132.691,340.583L133.701,343.33L134.712,340.223L135.722,342.535L136.732,344.123L137.742,346.435L138.752,346.29L139.762,342.678L140.772,343.835L141.782,343.763L142.792,342.967L143.802,339.933L144.812,339.5L145.822,333.648L146.832,340.945L147.842,341.09L148.852,346.435L149.862,342.75L150.872,339.863L151.882,337.983L152.892,343.763L153.902,344.773L154.912,344.63L155.922,346.003L156.932,342.75L157.942,343.04L158.952,344.195L159.963,344.918L160.973,340.8L161.982,342.027L162.993,346.363L164.003,344.34L165.012,343.618L166.023,346.435L167.033,343.835L168.043,344.34L169.053,346.148L170.063,338.705L171.073,333.938L172.083,329.748L173.093,325.413L174.103,319.055L175.113,322.163L176.123,322.018L177.133,320.645L178.143,320.573L179.153,319.49L180.163,316.383L181.173,316.815L182.183,319.777L183.193,318.045L184.203,315.443L185.214,314.65L186.224,310.675L187.234,308.365L188.244,310.603L189.254,308.508L190.264,310.893L191.274,314.505L192.284,307.785L193.294,306.92L194.304,309.592L195.314,310.965L196.324,310.675L197.334,312.12L198.344,312.337L199.354,313.783L200.364,313.855L201.374,314.288L202.384,310.603L203.394,312.265L204.404,309.303L205.414,312.842L206.424,312.265L207.434,313.783L208.444,314.215L209.454,319.705L210.464,318.333L212.485,323.967L213.494,327.003L214.505,327.652L215.515,326.498L216.525,322.595L217.535,316.023L218.545,317.538L219.555,316.165L220.565,315.01L221.575,314.938L222.585,316.238L223.595,315.733L224.605,316.023L225.615,311.975L226.625,306.413L227.635,306.848L228.645,306.053L229.655,305.908L230.665,304.753L231.675,301.5L232.685,300.563L233.695,301.213L234.705,298.973L235.716,296.588L236.726,292.47L237.736,291.533L238.746,292.47L239.756,293.915L240.766,292.833L241.776,292.47L242.786,292.543L243.796,291.748L244.806,289.003L245.816,293.988L246.826,292.47L247.836,292.11L248.846,291.748L249.856,291.893L250.865,292.11L251.875,294.133L252.885,292.978L253.895,295.36L254.905,293.77L255.915,293.483L256.925,294.71L257.938,293.048L258.948,292.038L259.957,291.46L260.967,292.76L261.978,290.375L262.988,284.525L263.998,283.368L265.008,282.645L266.018,280.19L267.027,278.6L268.038,283.803L269.048,284.018L270.058,283.585L271.068,283.008L272.078,282.935L273.088,277.01L274.098,280.55L275.108,281.128L276.118,280.985L277.128,280.55L278.138,281.273L279.148,278.383L280.158,276L281.168,278.31L282.178,277.733L283.188,274.7L284.198,268.558L285.208,268.558L286.217,270.798L287.228,271.375L288.238,271.52L289.248,271.088L290.258,271.738L291.268,271.738L292.277,273.543L293.288,277.155L294.298,278.168L295.308,279.323L296.318,277.733L297.328,277.228L298.338,274.7L299.348,275.71L300.358,278.6L301.368,274.842L302.378,274.483L303.388,272.025L304.398,273.47L305.408,271.375L306.418,276L307.428,274.193L308.438,273.905L309.448,273.833L310.458,274.41L311.467,276.868L312.478,275.06L313.488,272.965L314.498,274.628L315.508,273.615L316.518,274.555L317.527,274.628L318.538,275.855L319.548,277.66L320.558,274.555L321.57,273.328L322.58,272.025L323.59,271.955L324.6,274.12L325.61,276.073L326.62,277.59L327.63,274.628L328.64,275.71L329.65,276.868L330.66,275.495L331.67,273.615L332.68,275.423L333.69,272.243L334.7,271.233L335.71,269.715L336.72,266.97L337.73,265.235L338.74,266.175L339.75,261.84L340.76,261.335L341.77,262.203L342.78,259.455L343.79,259.385L344.8,258.155L345.81,255.915L346.82,256.205L347.83,254.183L348.84,254.688L349.85,252.665L350.86,252.232L351.87,250.498L352.88,247.536L353.89,245.947L354.9,246.38L355.91,244.935L356.92,246.886L357.93,243.78L358.94,243.563L359.95,243.996L360.96,245.152L361.97,243.491L362.98,242.19L363.99,240.167L365,241.901L366.01,235.833L367.02,234.677L368.03,234.677L369.04,235.327L370.05,233.738L371.06,233.81L372.07,231.137L373.08,227.02L374.09,227.742L375.1,228.97L376.11,227.959L377.12,227.598L378.13,229.115L379.14,227.309L380.15,225.647L381.16,225.792L382.17,226.153L383.18,227.887L384.19,226.658L385.203,227.453L386.212,224.058L387.223,226.153L388.233,227.309L389.243,224.347L390.253,222.468L391.263,225.864L392.273,225.647L393.283,224.347L394.293,226.153L395.303,225.069L396.313,225.069L397.323,227.887L398.333,227.525L399.342,225.141L400.353,223.263L401.363,226.947L402.373,226.225L403.383,224.491L404.393,222.974L405.402,224.347L406.413,220.662L407.423,220.735L408.433,219.218L409.443,220.012L410.453,219.579L411.462,216.617L412.473,217.267L413.483,216.978L414.493,215.894L415.503,215.316L416.513,215.316L417.522,217.484L418.533,220.084L419.543,221.601L420.553,222.685L421.563,220.807L422.573,221.385L423.583,222.83L424.592,220.301L425.603,218.351L426.613,220.662L427.623,226.875L428.633,224.78L429.643,225.069L430.652,226.514L431.663,223.48L432.673,224.997L433.683,226.442L434.693,225.503L435.703,225.141L436.712,222.974L437.723,223.841L438.733,226.947L439.743,227.02L440.753,230.921L441.763,228.609L442.772,230.704L443.783,230.487L444.793,229.982L445.803,229.548L446.813,227.814L447.823,226.875L448.835,222.613L449.845,221.601L450.855,223.263L451.865,224.274L452.875,222.107L453.885,222.685L454.895,222.035L455.905,220.879L456.915,223.985L457.925,223.841L458.935,223.768L459.945,223.841L460.955,224.274L461.965,224.491L462.975,222.541L463.985,222.468L464.995,226.008L466.005,224.636L467.015,224.636L468.025,225.864L469.035,226.369L470.045,224.636L471.055,225.214L472.065,225.864L473.075,228.248L474.085,229.259L475.095,227.959L477.115,231.426L478.125,230.126L479.135,232.582L480.145,229.765L481.155,226.153L483.175,226.442L484.185,227.164L485.195,227.236L486.205,229.982L487.215,230.993L488.225,229.476L489.235,232.654L490.245,231.788L491.255,231.21L492.265,229.548L493.275,227.381L494.285,227.236L495.295,228.97L496.305,226.947L497.315,226.08L498.325,226.225L499.335,227.309L500.345,228.175L501.355,228.464L502.365,229.259L503.375,232.149L504.385,229.404L505.395,230.271L506.405,231.499L507.415,227.164L508.425,227.02L509.435,225.719L510.445,224.78L511.458,223.191L512.467,224.491L513.477,222.252L514.487,222.252L515.497,221.673L516.508,220.084L517.518,220.229L518.528,219.868L519.538,216.761L520.548,215.244L521.558,213.438L522.568,216.328L523.578,215.967L524.588,215.316L525.598,215.533L526.608,215.605L527.617,218.495L528.628,216.111L529.638,215.967L530.648,217.989L531.658,216.545L532.668,219.145L533.678,219.579L534.688,217.773L535.698,218.64L536.708,215.316L537.718,216.472L538.728,218.712L539.738,220.301L540.747,218.206L541.758,216.978L542.768,219.651L543.778,217.628L544.788,219.145L545.798,221.096L546.808,221.385L547.818,224.202L548.828,223.841L549.838,222.685L550.848,220.735L551.858,224.636L552.867,224.997L553.878,227.381L554.888,223.768L555.898,226.947L556.908,228.175L557.918,228.609L558.928,229.693L559.938,229.259L560.948,230.704L561.958,225.214L562.968,222.468L563.978,222.179L564.988,222.468L565.997,222.107L567.008,224.347L568.018,225.286L569.028,222.974L570.038,221.168L571.048,222.83L572.058,220.518L573.068,218.423" style="fill:none;fill-rule:nonzero;stroke:rgb(235,0,65);stroke-width:1.5px;"/>
    <path d="M69.059,343.473L70.069,343.185L71.079,344.99L72.089,345.135L73.099,345.063L74.109,342.895L75.119,342.678L76.129,339.355L77.139,337.768L78.149,345.425L79.159,339.933L80.169,341.958L82.189,341.958L83.199,342.462L84.21,342.173L85.22,342.1L86.23,342.1L87.24,341.813L88.25,342.895L89.26,342.245L90.27,338.923L91.28,343.98L92.29,344.703L93.3,339.645L94.31,344.195L95.32,344.558L96.33,345.568L97.34,343.473L98.35,346.652L99.36,343.618L100.37,345.93L101.38,341.523L102.39,341.378L103.4,344.99L104.41,344.918L105.42,345.495L106.43,340.368L107.44,341.595L108.45,344.63L109.461,342.39L110.471,342.027L111.481,341.378L112.491,344.34L113.501,344.63L114.51,342.245L115.521,346.435L116.531,343.33L117.541,342.39L118.551,345.64L119.561,344.99L120.571,341.378L121.581,345.785L122.591,341.595L123.601,343.98L124.611,344.053L125.621,343.4L126.631,344.413L127.641,346.435L128.651,343.473L129.661,346.363L130.671,342.318L131.681,338.85L132.691,339.283L133.701,342.75L134.712,343.908L135.722,345.64L136.732,343.69L137.742,346.217L138.752,346.148L139.762,346.148L140.772,346.58L141.782,344.99L142.792,346.003L143.802,343.98L144.812,345.063L145.822,344.053L146.832,344.195L147.842,344.558L148.852,342.678L149.862,342.39L150.872,341.668L151.882,333.865L152.892,334.515L153.902,340.728L154.912,340.873L155.922,341.235L156.932,341.523L157.942,343.69L158.952,343.763L159.963,342.678L160.973,342.678L161.982,340.078L162.993,336.828L164.003,336.465L165.012,341.09L166.023,345.135L167.033,344.34L168.043,344.99L169.053,338.777L170.063,322.09L171.073,312.77L172.083,296.515L173.093,293.12L174.103,295.143L175.113,287.198L176.123,288.28L177.133,277.445L178.143,273.978L179.153,267.402L180.163,267.185L181.173,262.923L182.183,260.613L183.193,256.855L184.203,250.86L185.214,258.3L186.224,250.498L187.234,238L188.244,250.21L189.254,248.475L190.264,246.525L191.274,243.852L192.284,244.43L193.294,244.141L194.304,245.008L195.314,244.43L196.324,248.259L197.334,233.594L198.344,228.826L199.354,221.673L200.364,214.305L201.374,212.355L202.384,205.058L203.394,202.096L204.404,196.028L205.414,196.678L206.424,190.899L207.434,188.298L208.444,180.424L209.454,181.074L210.464,179.629L211.475,182.591L212.485,179.196L213.494,178.979L214.505,179.773L215.515,171.61L216.525,172.982L217.535,172.116L218.545,171.827L219.555,166.192L220.565,165.397L221.575,164.025L222.585,155.067L223.595,153.983L224.605,151.455L225.615,142.93L226.625,143.436L227.635,136.573L228.645,126.459L229.655,127.398L231.675,131.877L232.685,128.987L233.695,126.603L234.705,129.349L235.716,125.664L236.726,120.969L237.736,118.512L238.746,114.25L239.756,119.235L240.766,118.512L241.776,119.452L242.786,128.626L243.796,128.554L244.806,128.987L245.816,129.71L246.826,131.299L247.836,128.771L248.846,134.406L249.856,137.151L250.865,129.637L251.875,127.687L252.885,127.976L253.895,130.866L254.905,128.193L255.915,127.398L256.925,124.147L257.938,124.292L258.948,120.102L259.957,126.025L260.967,127.109L261.978,128.626L262.988,128.915L263.998,128.915L265.008,131.155L266.018,134.406L267.027,134.695L268.038,131.01L269.048,130.071L270.058,127.543L271.068,125.231L272.078,125.231L273.088,113.528L274.098,119.957L275.108,112.805L276.118,113.889L277.128,113.744L278.138,109.699L279.148,105.87L280.158,100.813L281.168,101.319L282.178,95.756L283.188,99.441L284.198,101.174L285.208,97.923L286.217,101.969L287.228,102.98L288.238,108.76L289.248,110.06L290.258,105.581L291.268,102.402L292.277,98.935L293.288,95.034L294.298,89.832L295.308,86.87L296.318,83.692L297.328,87.882L298.338,89.327L299.348,86.87L300.358,89.399L301.368,89.616L302.378,90.555L303.388,88.749L304.398,83.186L305.408,85.57L306.418,86.87L307.428,91.711L308.438,87.159L309.448,85.931L310.458,91.494L311.467,88.388L312.478,86.943L313.488,85.353L314.498,79.791L315.508,77.84L316.518,75.167L317.527,72.061L318.538,68.304L319.548,69.749L320.558,66.426L321.57,70.544L322.58,63.609L323.59,62.742L324.6,63.97L325.61,68.593L326.62,67.365L327.63,68.376L328.64,70.977L329.65,71.338L330.66,68.593L331.67,66.57L332.68,62.091L333.69,65.198L334.7,67.726L335.71,67.076L336.72,58.913L337.73,67.076L338.74,68.738L339.75,73.433L340.76,71.122L341.77,70.688L342.78,72.783L343.79,70.038L344.8,65.053L345.81,68.16L346.82,63.32L347.83,69.677L348.84,71.266L349.85,65.92L350.86,63.536L351.87,61.008L352.88,60.285L353.89,57.324L354.9,59.924L355.91,59.13L356.92,60.43L357.93,59.491L358.94,57.251L359.95,57.251L360.96,57.468L361.97,60.213L362.98,62.669L363.99,60.141L365,64.114L366.01,62.597L367.02,67.004L368.03,63.32L369.04,65.559L370.05,65.993L371.06,63.609L372.07,62.525L373.08,60.502L374.09,60.574L375.1,63.609L376.11,58.118L377.12,60.863L378.13,58.046L379.14,58.118L380.15,59.346L381.16,57.035L382.17,59.274L383.18,58.263L384.19,60.141L385.203,55.662L386.212,55.806L387.223,57.757L388.233,65.415L389.243,58.335L390.253,55.879L391.263,56.529L392.273,57.468L393.283,52.7L394.293,54.506L395.303,48.221L396.313,47.571L397.323,41.358L398.333,40.13L399.342,37.601L400.353,39.841L401.363,39.263L402.373,39.046L403.383,39.119L404.393,41.141L405.402,36.951L406.413,35.795L407.423,42.586L408.433,42.008L409.443,38.685L410.453,33.7L411.462,36.229L412.473,39.841L413.483,39.624L414.493,41.141L415.503,35.868L416.513,35.868L417.522,36.518L418.533,32.617L419.543,32.545L420.553,35.579L421.563,38.107L422.573,38.902L423.583,37.457L424.592,41.936L425.603,36.662L426.613,35.868L427.623,36.229L428.633,38.541L429.643,41.503L430.652,36.807L431.663,33.339L432.673,31.244L433.683,32.472L434.693,31.316L435.703,25.609L436.712,27.126L437.723,27.993L438.733,26.91L439.743,27.415L440.753,26.332L441.763,26.332L442.772,28.86L443.783,23.948L444.793,28.355L445.803,31.677L446.813,24.887L447.823,30.522L448.835,25.32L449.845,27.126L450.855,24.02L451.865,24.598L452.875,21.419L453.885,18.024L454.895,21.564L455.905,15.206L456.915,18.024L457.925,20.697L458.935,21.708L459.945,23.225L460.955,25.104L461.965,20.697L462.975,20.263L463.985,22.069L464.995,19.758L466.005,18.963L467.015,18.024L468.025,18.674L469.035,13.617L470.045,19.469L471.055,19.107L472.065,19.974L473.075,15.857L474.085,13.545L475.095,14.123L476.105,16.796L477.115,12.678L478.125,13.545L479.135,20.119L480.145,16.29L481.155,23.514L482.165,23.948L483.175,19.974L484.185,18.241L486.205,13.762L487.215,16.001L488.225,19.83L489.235,16.435L490.245,20.769L491.255,16.94L492.265,15.351L493.275,14.556L494.285,18.674L495.295,15.351L496.305,16.001L497.315,14.339L498.325,18.674L499.335,20.769L500.345,21.636L501.355,18.746L502.365,15.784L503.375,18.241L504.385,19.83L505.395,19.252L506.405,19.035L507.415,15.495L508.425,14.701L509.435,15.784L510.445,16.073L511.458,19.396L512.467,19.902L513.477,18.313L514.487,18.963L515.497,20.697L516.508,18.024L517.518,19.252L518.528,18.457L519.538,19.324L520.548,16.868L521.558,15.64L522.568,15.929L523.578,16.218L524.588,18.241L525.598,19.324L526.608,15.64L527.617,17.374L528.628,15.206L529.638,12.895L530.648,14.195L531.658,16.073L532.668,16.146L533.678,16.579L534.688,15.568L535.698,15.062L536.708,13.184L537.718,10.366L538.728,18.024L539.738,18.168L540.747,19.107L541.758,14.845L542.768,17.952L543.778,20.914L544.788,22.069L545.798,24.742L546.808,20.914L547.818,23.731L548.828,23.803L549.838,16.723L550.848,16.94L551.858,19.18L552.867,16.146L553.878,17.085L554.888,20.119L555.898,19.902L556.908,15.712L557.918,10.005L558.928,14.051L559.938,12.461L560.948,15.712L561.958,14.701L562.968,11.883L563.978,15.712L564.988,17.085L565.997,14.556L567.008,16.218L568.018,16.435L569.028,19.396L570.038,16.723L571.048,14.917L572.058,13.689L573.068,12.822" style="fill:none;fill-rule:nonzero;stroke:rgb(65,0,235);stroke-width:1.5px;"/>
    <path d="M69.059,344.485L70.069,339.355L71.079,344.703L72.089,343.908L73.099,345.063L74.109,342.318L75.119,346.003L76.129,343.98L77.139,344.053L78.149,339.068L79.159,341.668L80.169,342.318L81.179,345.93L82.189,344.918L83.199,344.558L84.21,337.115L85.22,339.428L86.23,337.26L87.24,344.34L88.25,344.268L89.26,341.378L90.27,345.208L91.28,344.845L92.29,343.98L93.3,346.508L94.31,342.462L95.32,338.705L96.33,342.027L97.34,346.148L98.35,344.63L99.36,346.003L100.37,341.09L101.38,344.413L102.39,346.29L103.4,344.485L104.41,345.353L105.42,342.462L106.43,345.063L107.44,342.027L108.45,343.545L109.461,345.64L110.471,340.15L111.481,343.258L113.501,344.703L114.51,341.235L115.521,341.45L116.531,345.712L117.541,345.353L118.551,345.64L119.561,344.63L120.571,345.425L121.581,345.135L122.591,340.513L123.601,346.217L124.611,346.003L125.621,343.4L126.631,339.355L127.641,343.69L128.651,343.69L129.661,339.717L130.671,337.478L131.681,344.558L132.691,344.413L133.701,341.668L134.712,346.508L135.722,342.608L136.732,343.618L137.742,346.58L138.752,342.895L139.762,345.64L140.772,344.053L141.782,342.967L142.792,339.14L143.802,345.568L144.812,346.003L145.822,344.558L146.832,345.93L147.842,344.558L148.852,344.485L149.862,343.185L150.872,345.063L151.882,343.4L152.892,342.678L153.902,344.123L154.912,345.425L155.922,342.027L156.932,345.28L157.942,344.773L158.952,345.208L159.963,344.99L160.973,345.495L161.982,343.908L162.993,342.823L164.003,339.933L165.012,340.368L166.023,341.45L167.033,344.845L168.043,346.217L169.053,340.8L170.063,338.85L171.073,334.01L172.083,332.133L173.093,330.83L174.103,330.038L175.113,327.652L176.123,328.88L177.133,328.808L178.143,328.158L179.153,326.28L180.163,324.113L181.173,323.967L182.183,320.863L183.193,315.155L184.203,314.36L185.214,309.665L186.224,307.93L187.234,305.33L188.244,299.913L189.254,297.527L190.264,297.168L191.274,295.65L192.284,297.168L193.294,298.973L194.304,300.128L195.314,299.405L196.324,298.467L197.334,301.717L198.344,302.8L199.354,304.608L200.364,307.208L201.374,309.085L202.384,309.738L203.394,312.12L204.404,310.53L205.414,309.808L206.424,309.665L207.434,310.098L208.444,310.315L209.454,308.58L210.464,308.148L211.475,305.98L212.485,304.967L213.494,304.68L214.505,305.113L215.515,307.135L216.525,304.463L217.535,304.825L218.545,306.848L219.555,311.038L220.565,311.902L221.575,311.902L222.585,307.643L223.595,307.712L224.605,301.645L225.615,302.8L226.625,302.585L227.635,301.573L228.645,298.105L229.655,299.045L230.665,303.38L231.675,298.178L232.685,298.323L233.695,301.645L234.705,298.973L235.716,296.733L236.726,301.213L237.736,299.478L238.746,299.84L239.756,301.645L240.766,299.768L241.776,300.2L242.786,299.913L243.796,297.745L244.806,294.06L245.816,288.788L246.826,287.413L247.836,287.703L248.846,293.193L249.856,292.833L250.865,293.555L251.875,289.293L252.885,286.402L253.895,287.125L254.905,283.44L255.915,282.573L256.925,278.673L257.938,280.913L258.948,283.803L259.957,285.898L260.967,284.668L261.978,283.08L262.988,283.585L263.998,283.803L265.008,280.985L266.018,278.963L267.027,279.54L268.038,277.373L269.048,274.842L270.058,275.638L271.068,276.145L272.078,276.36L273.088,274.193L274.098,273.688L275.108,279.105L276.118,276.868L277.128,276.073L278.138,277.373L279.148,274.05L280.158,269.57L281.168,266.103L282.178,268.775L283.188,270.293L284.198,265.67L285.208,262.273L286.217,260.827L287.228,262.708L288.238,265.525L289.248,267.258L290.258,268.415L291.268,266.393L292.277,270.003L293.288,270.003L294.298,266.898L295.308,269.425L296.318,271.088L297.328,269.138L298.338,269.788L299.348,268.63L300.358,267.402L301.368,266.753L302.378,269.57L303.388,267.908L304.398,267.402L305.408,269.57L306.418,267.908L307.428,267.98L308.438,266.03L309.448,262.418L310.458,264.73L311.467,265.163L312.478,261.913L313.488,258.228L314.498,263.068L315.508,259.818L317.527,261.118L318.538,260.395L319.548,262.635L320.558,263.79L321.57,265.885L322.58,265.38L323.59,263.863L324.6,268.198L325.61,266.825L326.62,267.258L327.63,266.753L328.64,265.67L329.65,266.68L330.66,268.415L331.67,266.825L332.68,268.993L333.69,271.305L334.7,272.605L335.71,273.47L336.72,271.52L337.73,266.97L338.74,268.198L339.75,268.488L340.76,266.68L341.77,264.008L342.78,263.935L343.79,266.825L344.8,264.368L345.81,267.693L346.82,266.898L347.83,270.798L348.84,268.775L349.85,268.125L350.86,263.43L351.87,263.358L352.88,266.03L353.89,264.152L354.9,264.44L355.91,268.63L356.92,271.305L357.93,271.015L358.94,272.893L359.95,270.798L360.96,271.375L361.97,272.098L362.98,272.17L363.99,273.183L365,273.833L366.01,274.628L367.02,272.533L368.03,271.955L369.04,274.41L370.05,275.855L371.06,272.533L372.07,274.265L373.08,272.605L374.09,269.425L375.1,268.92L376.11,271.592L377.12,272.025L378.13,270.438L379.14,268.415L380.15,270.583L381.16,275.06L382.17,271.955L383.18,275.277L384.19,272.46L385.203,270.87L386.212,268.703L387.223,271.16L388.233,274.41L389.243,272.315L390.253,273.328L391.263,274.338L392.273,273.76L393.283,273.978L394.293,271.738L395.303,271.233L396.313,269.643L397.323,269.788L398.333,268.488L399.342,268.342L400.353,267.043L401.363,266.393L402.373,267.258L403.383,267.548L404.393,267.98L405.402,268.993L406.413,271.665L407.423,270.725L408.433,272.388L409.443,272.82L410.453,271.665L411.462,273.543L412.473,272.748L413.483,271.883L414.493,277.3L415.503,278.168L416.513,275.71L417.522,274.7L418.533,272.315L419.543,274.12L420.553,273.47L421.563,271.52L422.573,265.74L423.583,261.118L424.592,261.19L425.603,264.803L426.613,263.935L427.623,265.163L428.633,264.513L429.643,265.958L430.652,266.248L431.663,264.513L432.673,266.175L433.683,263.863L434.693,267.043L435.703,265.308L436.712,268.27L437.723,269.86L438.733,265.958L439.743,265.018L440.753,264.298L441.763,264.152L442.772,263.503L443.783,265.813L444.793,264.73L445.803,266.608L446.813,265.09L447.823,267.113L448.835,269.28L449.845,266.03L450.855,266.825L451.865,265.958L452.875,265.958L453.885,264.585L454.895,263.503L455.905,264.658L456.915,265.598L457.925,269.715L458.935,267.693L459.945,265.163L460.955,266.68L461.965,269.353L462.975,269.065L463.985,265.308L464.995,266.463L466.005,265.813L467.015,265.67L468.025,266.175L469.035,267.765L470.045,266.825L471.055,265.74L472.065,263.863L473.075,265.09L474.085,263.935L475.095,264.44L476.105,264.298L477.115,267.258L478.125,269.065L479.135,272.82L480.145,271.015L481.155,270.075L482.165,270.87L483.175,270.293L484.185,272.17L485.195,271.52L486.205,270.943L487.215,269.28L488.225,270.148L489.235,270.798L490.245,270.22L491.255,270.583L492.265,271.592L493.275,271.375L494.285,273.11L495.295,273.76L496.305,271.305L497.315,270.003L498.325,267.185L499.335,266.825L500.345,265.018L501.355,264.803L502.365,266.608L503.375,269.28L504.385,269.86L505.395,266.175L506.405,266.898L507.415,270.365L508.425,269.643L509.435,271.448L510.445,272.82L511.458,272.098L512.467,270.438L513.477,269.28L514.487,265.38L515.497,266.463L516.508,267.693L517.518,267.98L518.528,268.053L519.538,267.908L520.548,267.835L521.558,266.248L522.568,269.86L523.578,270.365L524.588,270.148L525.598,268.198L526.608,267.835L527.617,266.753L528.628,267.043L529.638,268.775L530.648,267.908L531.658,270.798L532.668,270.365L533.678,273.978L534.688,270.365L535.698,267.043L536.708,267.835L537.718,269.28L538.728,266.608L539.738,263.717L540.747,261.118L541.758,258.373L542.768,254.183L543.778,255.41L544.788,252.738L545.798,251.583L546.808,252.955L547.818,252.088L548.828,253.605L549.838,253.315L550.848,253.678L551.858,251.655L552.867,248.837L553.878,246.597L554.888,248.548L555.898,250.715L556.908,248.909L557.918,247.03L558.928,245.225L559.938,247.753L560.948,247.175L561.958,247.464L562.968,244.141L563.978,245.658L564.988,246.814L565.997,247.392L567.008,244.719L568.018,242.696L569.028,243.707L570.038,245.297L571.048,241.685L572.058,240.673L573.068,242.985" style="fill:none;fill-rule:nonzero;stroke:rgb(235,0,65);stroke-width:1.5px;"/>
    <path d="M69.059,344.123L70.069,343.33L71.079,344.485L72.089,342.823L73.099,338.777L74.109,341.235L75.119,340.368L76.129,341.378L77.139,346.148L78.149,344.63L79.159,346.003L80.169,343.33L81.179,346.148L82.189,337.55L83.199,344.703L84.21,344.703L85.22,345.063L86.23,346.58L87.24,346.075L88.25,345.858L89.26,345.568L90.27,341.09L91.28,338.56L92.29,336.465L93.3,343.545L94.31,339.5L95.32,338.995L96.33,337.623L97.34,338.488L98.35,342.75L99.36,343.33L100.37,343.473L101.38,345.135L102.39,346.58L103.4,346.217L104.41,344.413L105.42,340.005L106.43,343.763L107.44,341.813L108.45,338.85L109.461,345.208L110.471,341.958L111.481,336.973L112.491,342.608L113.501,345.353L114.51,343.98L115.521,344.845L116.531,337.768L117.541,337.045L118.551,341.668L119.561,345.063L120.571,343.835L121.581,346.075L122.591,337.695L123.601,344.485L124.611,341.668L125.621,344.34L126.631,338.055L127.641,345.495L128.651,343.69L129.661,339.79L130.671,344.845L131.681,345.28L132.691,346.29L133.701,344.485L134.712,346.58L135.722,343.908L136.732,344.123L137.742,344.123L138.752,345.495L139.762,346.435L140.772,344.918L141.782,344.195L142.792,343.545L143.802,345.858L144.812,345.495L145.822,344.268L146.832,340.945L147.842,343.763L148.852,343.908L149.862,340.005L150.872,345.64L151.882,344.123L152.892,341.378L153.902,335.02L154.912,337.115L155.922,338.705L156.932,346.217L157.942,346.363L158.952,345.568L159.963,343.835L160.973,339.933L161.982,338.923L164.003,344.558L165.012,345.858L166.023,344.485L167.033,343.545L168.043,344.703L169.053,342.462L170.063,336.25L171.073,329.025L172.083,324.04L173.093,325.268L174.103,322.018L175.113,322.668L176.123,321.658L177.133,324.258L178.143,323.173L179.153,324.618L180.163,327.435L181.173,331.842L182.183,330.615L183.193,333.938L184.203,325.63L185.214,338.128L186.224,332.638L187.234,333.72L188.244,326.135L189.254,327.725L190.264,325.848L191.274,334.228L192.284,336.105L193.294,341.163L194.304,334.95L195.314,333.793L196.324,335.165L197.334,330.47L198.344,331.41L199.354,333.648L200.364,336.033L201.374,334.37L202.384,328.88L203.394,325.053L204.404,328.735L205.414,326.425L206.424,316.31L207.434,317.9L208.444,318.045L209.454,315.587L210.464,310.46L211.475,316.815L212.485,318.26L213.494,310.388L214.505,307.785L215.515,315.587L216.525,312.555L217.535,317.61L218.545,316.815L219.555,321.658L220.565,323.753L221.575,326.93L222.585,335.238L223.595,334.733L224.605,338.418L225.615,342.535L226.625,342.462L227.635,331.41L228.645,330.543L229.655,330.615L230.665,334.878L231.675,335.02L232.685,329.315L233.695,331.553L234.705,332.71L235.716,330.83L236.726,333.07L237.736,333.07L238.746,335.092L239.756,335.238L240.766,333.143L241.776,331.48L242.786,327.003L243.796,327.508L244.806,332.203L245.816,339.355L246.826,335.815L247.836,334.878L248.846,340.368L249.856,342.535L250.865,346.363L251.875,345.063L252.885,346.58L253.895,342.245L254.905,343.835L255.915,346.148L256.925,342.823L257.938,345.063L258.948,345.568L259.957,343.04L260.967,343.618L261.978,342.823L262.988,346.58L263.998,346.435L265.008,342.967L266.018,341.523L267.027,346.508L268.038,342.462L269.048,345.712L270.058,341.523L271.068,338.345L272.078,336.033L273.088,336.033L274.098,336.25L275.108,341.09L276.118,339.068L277.128,343.113L278.138,345.28L279.148,344.413L280.158,344.485L281.168,344.703L282.178,344.845L283.188,339.645L284.198,341.958L285.208,336.755L286.217,332.998L287.228,332.783L288.238,331.265L289.248,327.58L290.258,322.958L291.268,327.363L292.277,323.1L293.288,330.325L294.298,324.04L295.308,328.375L296.318,333.143L297.328,330.83L298.338,325.63L299.348,333.72L300.358,329.82L301.368,330.108L302.378,335.888L303.388,330.975L304.398,333.505L305.408,333.575L306.418,328.52L307.428,332.783L308.438,333.793L309.448,329.17L310.458,330.108L311.467,328.665L312.478,332.06L313.488,323.245L314.498,322.45L315.508,322.813L316.518,322.09L317.527,318.768L318.538,314.07L319.548,308.365L320.558,306.848L321.57,309.738L322.58,319.49L323.59,318.983L324.6,315.515L325.61,319.633L326.62,316.455L327.63,317.033L328.64,319.705L329.65,321.005L330.66,316.238L331.67,322.595L332.68,318.188L333.69,315.155L334.7,318.623L335.71,308.365L336.72,314.288L337.73,311.975L338.74,308.725L339.75,310.243L340.76,316.6L341.77,314.938L342.78,313.205L343.79,308.58L344.8,306.125L345.81,309.158L346.82,303.958L347.83,302.945L348.84,306.775L349.85,303.235L350.86,305.908L351.87,308.075L352.88,308.798L353.89,305.113L354.9,304.39L355.91,304.825L356.92,315.01L357.93,312.698L358.94,310.675L359.95,316.023L360.96,321.945L361.97,326.135L362.98,321.658L363.99,318.55L365,322.378L366.01,316.238L367.02,313.06L368.03,317.61L369.04,317.683L370.05,318.695L371.06,321.15L372.07,326.135L373.08,323.608L374.09,324.763L375.1,323.245L376.11,321.44L377.12,322.163L378.13,316.238L379.14,318.55L380.15,314.288L381.16,311.183L382.17,308.798L383.18,302.368L384.19,303.453L385.203,305.33L386.212,302.73L387.223,306.703L388.233,312.625L389.243,314.505L390.253,307.353L391.263,308.798L392.273,311.76L393.283,313.277L394.293,314.505L395.303,314.865L396.313,314.938L397.323,316.745L398.333,317.178L399.342,317.973L400.353,320.79L401.363,319.633L402.373,321.513L403.383,319.633L404.393,318.695L405.402,321.658L406.413,323.68L407.423,330.688L408.433,325.195L409.443,323.173L410.453,322.235L411.462,319.418L412.473,315.3L413.483,313.133L414.493,317.395L415.503,312.77L416.513,310.243L417.522,314.578L418.533,309.738L419.543,307.135L420.553,305.835L421.563,311.833L422.573,314.288L423.583,308.58L424.592,313.855L425.603,310.315L426.613,305.04L427.623,304.463L428.633,305.258L429.643,300.635L430.652,305.33L431.663,303.308L432.673,301.645L433.683,303.668L434.693,301.068L435.703,299.84L436.712,299.913L437.723,303.958L438.733,306.198L439.743,299.623L440.753,303.018L441.763,300.418L442.772,300.995L443.783,309.88L444.793,310.965L445.803,305.113L446.813,309.303L447.823,307.712L448.835,305.113L449.845,306.198L450.855,305.33L451.865,303.885L452.875,304.03L453.885,306.848L454.895,305.908L455.905,309.953L456.915,308.652L457.925,310.603L458.935,309.015L459.945,313.493L460.955,313.998L461.965,320.5L462.975,314.938L463.985,316.888L464.995,315.373L466.005,317.25L467.015,323.462L468.025,325.63L469.035,329.098L470.045,330.902L471.055,328.592L472.065,331.337L473.075,325.558L474.085,324.402L475.095,330.253L476.105,326.135L477.115,327.943L478.125,328.085L479.135,328.735L480.145,328.085L481.155,330.543L482.165,325.848L483.175,326.93L484.185,321.728L485.195,320.573L486.205,320.212L487.215,317.323L488.225,316.527L489.235,318.405L490.245,320.79L491.255,321.368L492.265,318.623L493.275,319.995L494.285,314.143L495.295,313.565L496.305,308.943L497.315,305.185L498.325,299.333L499.335,301.79L500.345,300.49L501.355,302.44L502.365,305.763L503.375,304.103L504.385,306.558L505.395,309.23L506.405,304.967L507.415,304.895L508.425,310.098L509.435,305.113L510.445,304.895L511.458,305.475L512.467,306.99L513.477,304.895L514.487,305.402L515.497,305.402L516.508,299.263L517.518,300.995L518.528,306.125L519.538,309.808L521.558,301.717L522.568,311.543L523.578,302.658L524.588,296.95L525.598,294.855L526.608,291.748L527.617,291.603L528.628,294.277L529.638,299.333L530.648,297.31L531.658,301.573L532.668,294.638L533.678,293.842L534.688,296.228L535.698,289.798L536.708,297.96L537.718,292.255L538.728,297.89L539.738,299.695L540.747,297.96L541.758,303.813L542.768,308.508L543.778,310.025L544.788,315.805L545.798,315.66L546.808,314.505L547.818,308.652L548.828,306.848L549.838,307.57L550.848,305.04L551.858,303.74L552.867,309.592L553.878,308.798L554.888,312.265L555.898,318.045L556.908,316.96L557.918,315.443L558.928,314.865L559.938,316.888L560.948,318.695L561.958,325.918L562.968,327.22L563.978,333.865L564.988,332.638L565.997,336.178L567.008,335.96L568.018,338.2L569.028,330.83L570.038,326.353L571.048,326.208L572.058,327.58L573.068,323.318" style="fill:none;fill-rule:nonzero;stroke:rgb(65,0,235);stroke-width:1.5px;"/>
    <path d="M69.059,345.135L70.069,344.485L71.079,345.063L72.089,343.113L73.099,342.1L74.109,343.835L75.119,340.005L76.129,344.413L77.139,342.608L78.149,344.123L79.159,345.063L80.169,339.428L81.179,341.595L82.189,343.473L83.199,346.148L84.21,343.835L85.22,344.053L86.23,336.25L87.24,345.28L88.25,345.28L89.26,344.703L90.27,343.618L91.28,340.223L92.29,343.258L93.3,343.835L94.31,342.967L95.32,344.558L96.33,345.858L97.34,346.29L98.35,344.99L99.36,340.223L100.37,344.918L101.38,346.148L102.39,345.495L103.4,342.1L104.41,339.21L105.42,345.712L106.43,345.425L107.44,345.93L108.45,343.545L109.461,346.217L110.471,345.712L111.481,344.99L112.491,344.99L113.501,341.958L114.51,344.703L115.521,338.055L116.531,339.645L117.541,343.113L118.551,338.488L119.561,346.003L120.571,345.28L121.581,341.595L122.591,343.618L123.601,343.473L124.611,342.462L125.621,341.378L126.631,344.053L127.641,345.495L128.651,339.21L129.661,342.245L130.671,344.268L131.681,343.908L133.701,343.763L134.712,343.185L135.722,346.29L136.732,344.703L137.742,344.195L138.752,344.703L139.762,343.04L140.772,344.268L141.782,343.33L142.792,346.58L143.802,346.435L144.812,344.558L145.822,346.508L146.832,346.508L147.842,343.258L148.852,342.895L149.862,339.21L150.872,345.93L151.882,342.462L152.892,341.74L153.902,337.115L154.912,343.04L155.922,342.678L156.932,344.918L157.942,345.712L158.952,342.678L159.963,344.34L160.973,339.355L161.982,345.208L162.993,344.99L164.003,344.918L165.012,344.99L166.023,342.678L167.033,343.908L168.043,340.005L169.053,337.26L170.063,334.95L171.073,324.33L172.083,324.185L173.093,321.005L174.103,317.538L175.113,311.688L176.123,314.143L177.133,317.973L178.143,317.973L179.153,312.698L180.163,312.625L181.173,309.738L182.183,308.365L183.193,303.235L184.203,302.15L185.214,294.783L186.224,290.665L187.234,289.075L188.244,286.763L189.254,289.508L190.264,289.508L191.274,288.715L192.284,289.293L193.294,289.22L194.304,290.23L195.314,288.353L196.324,288.28L197.334,289.652L198.344,287.053L199.354,288.065L200.364,286.04L201.374,288.28L202.384,280.695L203.394,281.058L204.404,276.938L205.414,274.988L206.424,274.265L207.434,269.065L208.444,267.765L209.454,266.97L210.464,260.9L211.475,260.9L212.485,254.4L213.494,255.988L214.505,254.4L215.515,258.3L216.525,254.833L217.535,255.915L218.545,253.1L219.555,251.075L220.565,254.183L221.575,253.387L222.585,251.51L223.595,249.993L224.605,245.152L225.615,244.863L226.625,245.586L227.635,243.996L228.645,246.452L229.655,244.719L230.665,244.069L231.675,244.791L232.685,244.935L233.695,248.548L234.705,249.342L235.716,250.498L236.726,251.87L237.736,249.27L238.746,251.292L239.756,248.981L240.766,252.593L241.776,254.473L242.786,259.745L243.796,260.178L244.806,258.155L245.816,258.663L246.826,262.418L247.836,258.3L248.846,255.845L249.856,253.533L250.865,250.065L251.875,252.593L252.885,248.403L253.895,245.803L254.905,243.274L255.915,245.73L256.925,245.152L257.938,245.225L258.948,246.308L259.957,244.285L260.967,241.612L261.978,241.974L262.988,245.008L263.998,243.274L265.008,246.669L266.018,246.236L267.027,246.814L268.038,243.852L270.058,240.962L271.068,243.057L272.078,244.213L273.088,244.791L274.098,243.924L275.108,245.586L276.118,244.357L277.128,245.441L278.138,242.407L279.148,237.422L280.158,238.578L281.168,237.494L282.178,234.821L283.188,238.506L284.198,236.989L285.208,237.278L286.217,235.761L287.228,235.399L288.238,238.073L289.248,238.578L290.258,238.434L291.268,236.628L292.277,237.856L293.288,238.94L294.298,239.301L295.308,236.7L296.318,238.434L297.328,236.989L298.338,238.94L299.348,238.651L300.358,235.399L301.368,232.799L302.378,232.004L303.388,230.993L304.398,230.271L305.408,227.959L306.418,230.487L307.428,229.62L308.438,226.586L309.448,225.936L310.458,221.168L311.467,219.29L312.478,218.134L313.488,219.073L314.498,218.495L315.508,218.712L316.518,217.628L317.527,214.883L318.538,213.51L319.548,211.777L320.558,211.343L321.57,214.522L322.58,212.499L323.59,209.682L324.6,208.02L325.61,205.997L326.62,207.587L327.63,206.72L328.64,207.731L329.65,211.126L330.66,210.91L331.67,213.221L332.68,213.438L333.69,215.605L334.7,212.788L335.71,210.043L336.72,208.309L337.73,209.898L338.74,209.465L339.75,207.298L340.76,205.492L341.77,206.647L342.78,209.826L343.79,205.347L344.8,205.708L346.82,209.609L347.83,211.704L348.84,211.126L349.85,210.91L350.86,211.415L351.87,211.054L352.88,209.826L353.89,208.309L354.9,208.742L355.91,208.092L356.92,209.537L357.93,207.153L358.94,205.78L359.95,207.298L360.96,205.202L361.97,207.009L362.98,209.104L363.99,206.647L365,205.636L366.01,204.119L367.02,203.613L368.03,199.423L369.04,195.883L370.05,196.967L371.06,196.606L372.07,195.45L373.08,191.982L374.09,190.61L375.1,191.26L376.11,189.093L377.12,187.576L378.13,190.249L379.14,190.826L380.15,191.982L381.16,191.549L382.17,189.237L383.18,187.214L384.19,187.503L385.203,188.154L386.212,188.515L387.223,186.564L388.233,186.058L389.243,182.085L390.253,184.108L391.263,183.458L392.273,182.302L393.283,181.724L394.293,180.929L395.303,181.146L396.313,179.196L397.323,180.279L398.333,179.051L399.342,182.23L401.363,186.131L402.373,185.625L403.383,186.347L404.393,185.336L405.402,186.347L406.413,186.853L407.423,184.541L408.433,184.903L409.443,182.157L410.453,184.903L411.462,185.264L412.473,184.686L413.483,181.146L414.493,179.196L415.503,178.184L416.513,179.629L417.522,179.051L418.533,180.207L419.543,177.245L420.553,179.629L421.563,178.473L422.573,177.245L423.583,173.777L424.592,172.91L425.603,174.644L426.613,174.139L427.623,172.477L428.633,173.344L429.643,173.994L430.652,176.595L431.663,178.112L432.673,177.317L433.683,176.595L434.693,174.644L435.703,175.294L436.712,178.979L437.723,179.629L438.733,175.294L439.743,175.8L440.753,177.823L441.763,179.196L442.772,179.123L443.783,179.918L444.793,182.085L445.803,181.146L446.813,182.446L447.823,181.507L448.835,180.929L449.845,178.69L450.855,178.112L451.865,177.101L452.875,175.583L453.885,173.055L454.895,172.405L455.905,174.572L456.915,173.272L457.925,172.766L458.935,172.694L459.945,174.789L460.955,174.572L461.965,176.161L462.975,174.428L463.985,176.089L464.995,177.462L466.005,179.268L467.015,178.184L468.025,179.629L469.035,179.918L470.045,177.895L471.055,178.473L472.065,178.834L473.075,177.245L474.085,176.884L475.095,174.5L476.105,175.15L477.115,176.378L478.125,174.861L479.135,176.161L480.145,178.979L481.155,177.606L482.165,173.85L483.175,174.5L484.185,173.922L485.195,174.211L486.205,172.044L487.215,174.644L488.225,173.055L489.235,173.705L490.245,174.211L491.255,173.199L492.265,173.633L493.275,175.005L494.285,172.188L495.295,172.044L496.305,169.226L497.315,170.093L498.325,167.42L499.335,169.226L500.345,170.165L501.355,170.165L502.365,165.397L503.375,169.082L504.385,167.276L505.395,166.409L506.405,164.097L507.415,166.842L508.425,168.215L509.435,170.093L510.445,171.682L511.458,174.644L512.467,176.884L513.477,177.173L514.487,180.279L515.497,180.929L516.508,177.678L517.518,177.823L518.528,177.606L519.538,173.488L520.548,175.945L521.558,174.717L522.568,173.994L523.578,176.306L524.588,177.173L525.598,177.317L526.608,179.557L527.617,177.173L528.628,174.428L529.638,176.812L530.648,177.534L531.658,175.583L532.668,178.04L533.678,178.907L534.688,179.773L535.698,178.907L536.708,182.374L537.718,184.686L538.728,183.097L539.738,186.853L540.747,184.613L541.758,183.386L542.768,182.23L543.778,177.75L544.788,179.268L545.798,179.701L546.808,181.724L547.818,180.351L548.828,180.568L549.838,178.256L550.848,176.234L551.858,175.8L552.867,178.04L553.878,179.918L554.888,180.857L555.898,181.724L556.908,180.207L557.918,180.207L558.928,174.572L559.938,177.245L560.948,175.872L561.958,174.066L562.968,173.199L563.978,173.127L564.988,173.922L565.997,171.032L567.008,171.899L568.018,170.382L569.028,171.104L570.038,170.31L571.048,167.637L572.058,167.42L573.068,168.937" style="fill:none;fill-rule:nonzero;stroke:rgb(235,0,65);stroke-width:1.5px;"/>
    <g transform="matrix(1,0,0,1,114.551,43.9993)">
        <text x="-13.843px" y="0px" style="font-family:'ArialMT', 'Arial', sans-serif;font-size:12px;">T=10</text>
    </g>
    <g transform="matrix(1,0,0,1,219.555,43.9993)">
        <text x="-10.506px" y="0px" style="font-family:'ArialMT', 'Arial', sans-serif;font-size:12px;">T=2</text>
    </g>
</svg>
